<?xml version="1.0" encoding="utf-8"?>
<!-- Generator: Adobe Illustrator 17.0.2, SVG Export Plug-In . SVG Version: 6.00 Build 0)  -->
<svg version="1.2" baseProfile="tiny" id="Laag_1" xmlns="http://www.w3.org/2000/svg" xmlns:xlink="http://www.w3.org/1999/xlink"
	 x="0px" y="0px" width="640px" height="480px" viewBox="0 0 640 480" xml:space="preserve">
<polygon fill="#9C9B9B" points="366.914,293.352 366.914,181.663 447.442,79.548 299.198,34.872 233.31,175.281 234.599,337.554 
	442.978,443.345 559.083,352.388 "/>
<path fill="#E20613" d="M322.342,207.173v35.677c0,7.388,4.866,13.379,10.87,13.379c6.003,0,10.87-5.99,10.87-13.379v-35.677"/>
<path fill="#009EE2" d="M269.91,207.173v79.53c0,7.388,4.866,13.379,10.87,13.379c6.003,0,10.87-5.99,10.87-13.379v-79.53"/>
<polygon fill="#E20613" points="46.437,278.527 46.794,302.015 629,209.484 629,204.66 "/>
<polygon fill="#009EE2" points="48.371,328.628 47.846,353.406 629,219.132 629,214.308 "/>
<polygon fill="#C6C6C5" points="447.442,79.548 299.198,34.872 302.705,38.212 438.291,167.303 441.951,444.929 559.083,352.388 
	559.083,168.898 "/>
</svg>
