<?xml version="1.0" encoding="utf-8"?>
<!-- Generator: Adobe Illustrator 17.0.2, SVG Export Plug-In . SVG Version: 6.00 Build 0)  -->
<svg version="1.2" baseProfile="tiny" id="Laag_1" xmlns="http://www.w3.org/2000/svg" xmlns:xlink="http://www.w3.org/1999/xlink"
	 x="0px" y="0px" width="768px" height="1024px" viewBox="0 0 768 1024" xml:space="preserve">
<path fill="#DCB78D" d="M708.733,591.944c0,0-0.045-0.97-0.13-2.79c-0.023-0.455-0.049-0.963-0.077-1.522
	c-0.016-0.279-0.033-0.572-0.051-0.877c-0.009-0.152-0.018-0.308-0.027-0.467l-0.014-0.24l-0.037-0.38
	c-0.226-2.183-0.527-4.694-0.936-7.487c-0.104-0.668-0.207-1.482-0.332-2.077c-0.127-0.583-0.257-1.181-0.39-1.793
	c-0.267-1.223-0.554-2.502-0.876-3.827c-0.301-1.368-0.679-2.634-1.075-3.94c-0.396-1.315-0.806-2.676-1.229-4.083
	c-1.743-5.283-3.858-11.011-5.914-16.089c-1.165-3.013-2.378-6.152-3.634-9.4c-0.318-0.72-0.638-1.445-0.961-2.177l-0.486-1.102
	l-0.245-0.554l-0.123-0.278l-0.031-0.07l-0.383-0.963l-0.067-0.137c-0.71-1.461-1.43-2.945-2.161-4.449
	c-0.367-0.751-0.737-1.508-1.109-2.269c-0.45-0.867-0.903-1.74-1.359-2.618c-0.947-1.791-1.906-3.604-2.876-5.437
	c-0.973-1.814-1.959-3.417-2.954-5.157c-0.997-1.707-1.993-3.448-3.081-5.118c-4.216-6.811-8.856-13.534-13.773-20.132
	c-4.954-6.55-10.126-13.032-15.558-19.192c-5.38-6.207-10.964-12.173-16.583-17.856c-5.58-5.724-11.284-11.099-16.855-16.195
	c-5.546-5.123-11.076-9.861-16.358-14.275c-5.277-4.421-10.338-8.49-15.089-12.139c-4.734-3.666-9.148-6.924-13.067-9.789
	c-1.973-1.418-3.791-2.775-5.544-3.948c-1.778-1.143-3.618-1.959-5.404-2.54c-3.595-1.142-7.04-1.278-9.592-1.085
	c-2.587,0.227-4.218,0.705-4.218,0.705s-0.038,0.434-0.036,1.173c-0.013,0.387-0.01,0.838,0.026,1.336
	c0.035,0.499,0.032,1.128,0.106,1.741c0.242,2.528,0.885,5.831,2.425,9.145c0.772,1.656,1.778,3.304,3.055,4.891
	c1.316,1.542,2.79,3.152,4.321,4.917c3.068,3.524,6.509,7.51,10.157,11.942c3.637,4.441,7.592,9.214,11.617,14.375
	c4.037,5.148,8.2,10.63,12.399,16.336c2.121,2.838,4.179,5.787,6.296,8.737c2.044,3.002,4.185,5.977,6.223,9.044
	c4.157,6.082,8.115,12.389,11.976,18.673l2.848,4.731c0.908,1.589,1.815,3.177,2.721,4.761c1.833,3.152,3.519,6.333,5.226,9.464
	c1.617,3.163,3.266,6.28,4.733,9.389c1.553,3.084,2.922,6.164,4.27,9.18c0.709,1.499,1.274,3.018,1.907,4.494
	c0.596,1.463,1.284,2.986,1.79,4.35c0.5,1.35,0.995,2.685,1.484,4.004l0.369,0.981c0.124,0.334,0.239,0.616,0.383,1.051
	c0.277,0.801,0.553,1.596,0.826,2.386c0.551,1.579,1.094,3.136,1.629,4.67l0.05,0.144c-0.695-1.762-0.18-0.447-0.329-0.821
	l0.022,0.073l0.09,0.29l0.179,0.579l0.355,1.151c0.236,0.764,0.47,1.522,0.701,2.274l0.346,1.123l0.022,0.07
	c-0.233-0.688,0.552,1.638-0.517-1.524l0.041,0.157l0.082,0.314l0.163,0.625c0.222,0.83,0.441,1.654,0.659,2.469
	c0.43,1.573,0.851,3.117,1.264,4.63c1.67,5.964,2.917,10.379,3.807,14.192c0.178,0.883,0.351,1.737,0.517,2.561
	c0.179,0.83,0.349,1.625,0.403,2.276c0.081,0.683,0.18,1.331,0.283,1.949c0.051,0.309,0.101,0.61,0.15,0.904
	c0.045,0.283,0.002,0.342,0.014,0.516c0,0.582,0.065,1.083,0.157,1.522c0.006,1.266,0.011,2.343,0.015,3.217
	c0.014,1.821,0.021,2.793,0.021,2.793l0,0.053c0.122,15.846,13.066,28.594,28.912,28.472c15.846-0.122,28.594-13.066,28.472-28.912
	C708.761,592.729,708.747,592.278,708.733,591.944z"/>
<path fill="#DCB78D" d="M426.603,392.371c0,0-0.483-0.072-1.324-0.126c-0.876-0.092-2.075-0.117-3.577-0.089
	c-2.992,0.073-7.049,0.518-11.508,1.927c-2.229,0.708-4.558,1.662-6.933,2.918c-2.347,1.296-4.835,2.764-7.551,4.239
	c-5.408,2.981-11.565,6.227-18.369,9.513c-6.811,3.267-14.208,6.693-22.13,9.901c-7.922,3.195-16.338,6.258-25.052,8.896
	c-8.715,2.619-17.761,4.796-26.799,6.2c-9.041,1.462-18.088,1.946-26.652,1.527c-4.269-0.279-8.416-0.801-12.375-1.595
	c-3.92-0.887-7.718-1.854-11.212-3.259c-3.494-1.398-6.808-2.949-9.829-4.847c-1.57-0.837-2.964-1.958-4.427-2.903
	c-0.711-0.51-1.376-1.095-2.065-1.623c-0.68-0.545-1.383-1.039-2.007-1.662c-5.216-4.59-9.603-9.986-13.312-15.751
	c-3.751-5.733-6.758-11.861-9.241-17.785c-0.6-1.503-1.188-2.974-1.762-4.412c-0.53-1.485-1.048-2.936-1.553-4.35
	c-1.072-2.779-1.834-5.633-2.667-8.213c-1.525-5.274-2.72-9.972-3.615-13.923c-0.983-3.89-1.502-7.097-1.965-9.228
	c-0.445-2.142-0.682-3.284-0.682-3.284l-0.186-0.896c-3.221-15.516-18.41-25.483-33.926-22.262
	c-15.516,3.221-25.483,18.41-22.262,33.926c0.044,0.213,0.121,0.556,0.17,0.767c0,0,0.328,1.389,0.944,3.994
	c0.638,2.606,1.487,6.406,2.926,11.269c1.304,4.857,3.207,10.746,5.655,17.474c1.313,3.366,2.561,6.941,4.262,10.696
	c0.827,1.875,1.62,3.806,2.541,5.759c0.975,1.948,1.972,3.941,2.99,5.977c4.236,8.099,9.423,16.789,16.226,25.443
	c6.818,8.609,15.386,17.106,25.671,24.291c10.246,7.202,22.373,12.766,34.923,15.844c1.57,0.359,3.144,0.718,4.72,1.078
	c1.577,0.324,3.16,0.556,4.742,0.828l2.373,0.386l2.371,0.264c1.579,0.165,3.164,0.36,4.74,0.466
	c6.308,0.425,12.542,0.367,18.648-0.046c12.185-0.926,23.793-3.381,34.612-6.675c10.865-3.225,20.939-7.419,30.361-11.819
	c9.422-4.408,18.093-9.255,26.101-14.065c7.998-4.829,15.306-9.674,21.872-14.358c6.575-4.668,12.423-9.139,17.524-13.189
	c2.547-2.029,4.925-3.929,7.062-5.768c2.107-1.882,3.857-3.865,5.298-5.827c2.87-3.948,4.477-7.842,5.317-10.764
	c0.415-1.468,0.672-2.657,0.776-3.536C426.585,392.856,426.603,392.371,426.603,392.371z"/>
<path fill="#1D1D1B" d="M544.599,595.65C524,600,495,608,492,629c-4,29,12,55,22.014,81.767c1.716,4.441,3.398,8.893,4.999,13.371
	c4.804,13.433,8.883,27.092,10.981,41.334c0.5,4.024,0.901,8.041,1.244,12.066c2.053,24.149,2.189,48.58-0.17,72.756
	c-0.376,2.388-0.733,4.654-1.068,6.783c-0.805,4.089-1.472,7.673-2.153,10.293c-0.336,1.323-0.564,2.629-0.873,3.543
	c-0.294,0.939-0.544,1.735-0.722,2.387c-0.361,1.302-0.553,1.996-0.553,1.996l-0.509,1.837c-4.81,17.353,5.359,35.32,22.712,40.13
	c17.353,4.81,35.32-5.359,40.13-22.712c0.083-0.301,0.196-0.741,0.27-1.042c0,0,0.308-1.275,0.887-3.666
	c0.273-1.198,0.611-2.676,1.007-4.413c0.407-1.756,0.641-3.598,1.021-5.757c0.817-4.338,1.282-9.322,1.815-15.046
	c0.173-2.798,0.357-5.775,0.552-8.914c0.121-3.085,0.159-6.308,0.221-9.676c0.004-3.34-0.042-6.769-0.109-10.34
	c-0.106-3.543-0.298-7.163-0.485-10.893c-1.933-26.952-7.534-54.055-11.73-81.281c-0.6-3.889-1.171-7.781-1.699-11.676
	c-0.63-3.141-1.155-6.314-1.605-9.507c-0.45-3.194-0.824-6.408-1.153-9.631C568,675,590,617,546.127,595.692
	C545.197,595.654,544.599,595.65,544.599,595.65z"/>
<path fill="#1D1D1B" d="M386.616,588.201C356,581,350,620,345.383,641.581c-0.298,3.927-0.543,7.848-0.761,11.762
	c-1.526,27.398-1.729,54.468-9.478,81.15c-0.495,3.01-0.971,5.992-1.453,8.967c-1.445,8.918-2.956,17.804-4.775,26.59
	c-0.858,4.124-1.691,8.219-2.498,12.271c-0.807,4.052-1.587,8.062-2.346,12.012c-1.384,7.947-2.7,15.63-3.861,22.962
	c-1.011,7.377-1.978,14.364-2.795,20.826c-0.704,6.525-1.184,12.541-1.676,17.865c-0.557,5.291-0.679,10.08-0.845,13.961
	c-0.331,7.793-0.431,12.254-0.431,12.254c-0.402,18.003,13.865,32.923,31.868,33.325c18.003,0.402,32.923-13.865,33.325-31.868
	c0.006-0.251,0.008-0.502,0.008-0.752l-0.008-1.52c0,0-0.021-3.89-0.214-10.709c-0.051-1.705-0.073-3.593-0.163-5.651
	c-0.118-2.043-0.102-4.313-0.099-6.734c-0.007-4.841,0.012-10.298-0.059-16.282c0.139-6.028,0.207-12.571,0.291-19.505
	c0.197-6.982,0.404-14.344,0.619-21.96c0.157-3.834,0.317-7.733,0.478-11.679c0.162-3.946,0.325-7.94,0.503-11.966
	c0.599-4.19,1.216-8.381,1.827-12.574c0.395-4.166,0.855-8.339,1.423-12.607c0.29-4.286,0.975-8.47,1.963-12.576
	c0.988-4.106,2.279-8.136,3.778-12.115C411,683,433,626,387.772,589.147C387.066,588.551,386.616,588.201,386.616,588.201z"/>
<path fill="#C6C6C5" d="M338.802,396.718c10.432-7.824,59.983-39.119,139.525-37.815c79.542,1.304,126.485,37.163,133.005,44.335
	c5.433,5.977-8.603,50.438-16.828,66.979c-1.645,3.309-3.058,5.501-4.036,6.046c-9.128,1.301-15.648-3.914-23.471-7.826
	c0.163,3.749,0.57,7.539,1.128,11.354c0.558,3.816,1.266,7.658,2.03,11.518C578,522,588,563,556,583
	c-3.667,2.167-7.389,3.694-11.143,4.685c-3.755,0.991-7.542,1.444-11.338,1.463C490,588,447,589,404.811,575.044
	c-3.741-0.489-7.48-1.066-11.218-1.715c-7.476-1.297-14.945-2.879-22.406-4.602c-2.902-1.223-5.513-3.084-7.74-5.804
	c-2.227-2.72-4.071-6.298-5.446-10.923c-11-36,18-67,28-101c-11,9-23,17-36.988,20.256c-4.109,0.534-7.439-3.39-10.026-9.625
	C331.223,442.927,330.978,402.586,338.802,396.718z"/>
<path fill="#3C3C3B" d="M361.046,537.425c-20.39,38.361-26.472,101.821,20.279,115.718c4.25,1.263,8.937,2.117,14.089,2.505
	C436,661,476,664,516.597,658.689c4.053-0.348,8.042-0.894,11.945-1.683c15.611-3.157,29.834-10.204,41.171-24.034
	c2.65-3.61,4.865-7.546,6.646-11.707c8.893-20.802,6.937-47.207-6.755-65.463c-10.432-16.952-43.031-16.952-68.035-18.906
	c-3.722-0.482-7.587-0.958-11.609-1.417c-8.032-0.918-16.686-1.763-25.977-2.497c-14.332-1.131-26.72-1.742-37.412-1.975
	c-5.346-0.116-10.269-0.138-14.799-0.083c-15.595,0.102-31.243,0.102-46.773,4.828C362.1,536.72,361.046,537.425,361.046,537.425z"
	/>
<path fill="#3C3C3B" d="M531.123,564.414c0,0,1.922-0.391,4.711-1.362c2.793-0.966,6.226-2.541,9.549-4.799
	c3.274-2.262,6.266-5.236,8.192-8.928c2.048-3.674,2.192-8.189,3.01-12.993c0.729-4.82,1.346-10.067,1.967-15.619
	c0.572-5.56,1.109-11.43,1.474-17.529c0.39-6.093,0.614-12.415,0.709-18.844c0.05-3.215-0.005-6.467-0.012-9.722
	c-0.088-3.269-0.162-6.537-0.309-9.818c-0.342-6.561-0.788-13.118-1.558-19.577c-0.187-1.612-0.374-3.217-0.559-4.815
	c-0.234-1.598-0.467-3.188-0.699-4.769c-0.419-3.153-1.029-6.271-1.578-9.327c-1.145-6.111-2.607-11.983-4.113-17.505
	c-0.34-1.381-0.769-2.735-1.208-4.067c-0.427-1.328-0.849-2.635-1.263-3.921c-0.77-2.566-1.77-5.025-2.661-7.359
	c-0.868-2.338-1.847-4.559-2.784-6.644c-0.474-1.037-0.937-2.048-1.386-3.031c-0.495-0.968-0.976-1.909-1.441-2.82
	c-0.962-1.807-1.816-3.488-2.737-5.004c-0.906-1.519-1.786-2.883-2.565-4.108c-0.397-0.611-0.744-1.194-1.12-1.726
	c-0.39-0.524-0.756-1.015-1.097-1.473c-0.687-0.907-1.248-1.679-1.739-2.286c-0.962-1.213-1.474-1.86-1.474-1.86l-1.195,0.522
	c0,0,0.071,0.819,0.205,2.354c0.106,1.538,0.448,3.692,0.6,6.494c0.088,1.396,0.168,2.935,0.308,4.575
	c0.142,1.639,0.104,3.471,0.197,5.361c0.04,0.944,0.081,1.918,0.123,2.921c-0.003,1.011-0.006,2.051-0.01,3.119
	c-0.012,2.129,0.096,4.315-0.012,6.651c-0.028,1.156-0.057,2.335-0.087,3.538c0.009,1.189-0.029,2.411-0.094,3.659
	c-0.122,2.495-0.18,5.029-0.365,7.672c-0.253,5.253-0.699,10.78-1.199,16.484c-0.23,2.853-0.497,5.741-0.8,8.677
	c-0.278,2.927-0.587,5.888-0.926,8.878c-0.642,5.965-1.378,12.031-2.146,18.085c-0.75,6.057-1.572,12.111-2.392,18.071
	c-0.841,5.96-1.65,11.824-2.508,17.499c-0.391,2.839-0.828,5.628-1.246,8.358c-0.376,2.734-0.818,5.404-1.208,8.004
	c-0.812,5.199-1.579,10.115-2.287,14.653c-0.599,4.557-1.85,8.608-1.102,12.514c0.634,3.89,2.421,7.514,4.679,10.68
	c2.295,3.168,4.894,5.851,7.093,7.783c2.202,1.928,3.79,3.08,3.79,3.08L531.123,564.414z"/>
<path fill="#3C3C3B" d="M436.636,359.341c0,0-0.494,0.697-1.421,2.004c-0.903,1.316-2.214,3.254-3.778,5.766
	c-1.594,2.501-3.421,5.582-5.455,9.148c-0.994,1.794-2.051,3.702-3.165,5.715c-1.059,2.036-2.173,4.177-3.335,6.411
	c-1.172,2.235-2.267,4.605-3.453,7.047c-1.185,2.442-2.371,4.984-3.519,7.621c-2.349,5.26-4.739,10.856-6.977,16.734
	c-2.275,5.869-4.441,12.008-6.486,18.32c-2.023,6.317-3.94,12.803-5.601,19.39c-1.687,6.583-3.137,13.261-4.354,19.935
	c-1.2,6.677-2.139,13.353-2.768,19.94c-0.607,6.588-0.91,13.096-0.813,19.421c0.027,3.163,0.165,6.273,0.43,9.343
	c0.103,1.52,0.271,3.049,0.439,4.548c0.146,1.486,0.365,2.998,0.648,4.444c1.152,5.823,3.697,11.185,7.083,15.508
	c3.373,4.335,7.625,7.549,11.662,9.347c1.018,0.445,1.988,0.817,2.953,1.126c0.974,0.292,1.908,0.504,2.741,0.695
	c1.809,0.292,3.329,0.385,4.602,0.342c1.312-0.077,2.308-0.237,2.986-0.375c0.688-0.168,1.042-0.255,1.042-0.255l0.84-0.997
	c0,0,0.203-1.328,0.585-3.819c0.076-0.54,0.232-1.196,0.365-1.836c0.119-0.63,0.281-1.309,0.446-1.992
	c0.163-0.694,0.377-1.433,0.583-2.155c0.162-0.681,0.412-1.454,0.668-2.217c0.93-2.99,2.021-6.007,2.768-9.189
	c0.743-3.186,1.153-6.583,0.809-10.439c-0.187-1.925-0.543-3.965-0.706-6.178c-0.109-1.094-0.197-2.225-0.257-3.398
	c-0.083-1.156-0.152-2.359-0.203-3.582c-0.201-4.894-0.244-10.232-0.078-15.863c0.144-5.633,0.455-11.554,0.875-17.63
	c0.403-6.08,0.943-12.314,1.512-18.595c0.596-6.277,1.217-12.605,1.88-18.861c0.666-6.292,1.32-12.484,1.954-18.476
	c0.628-6.055,1.235-11.908,1.81-17.459c0.315-2.78,0.572-5.504,0.815-8.145c0.239-2.642,0.541-5.18,0.738-7.647
	c0.223-2.464,0.436-4.825,0.639-7.071c0.182-2.259,0.355-4.403,0.518-6.417c0.308-4.04,0.583-7.572,0.746-10.508
	c0.194-2.926,0.298-5.248,0.371-6.833c0.06-1.591,0.092-2.439,0.092-2.439L436.636,359.341z"/>
<path fill="#DCB78D" d="M384.377,250.391c-3.848,26.362-3.848,55.049,7.572,80.426c1.54,4.38,3.243,8.557,5.233,12.562
	c13.879,28.035,41.868,47.833,78.158,47.428c4.287,0.465,8.54,0.695,12.766,0.695c13.084,0,25.563-3.697,36.955-10.401
	c2.278-1.341,4.513-2.802,6.699-4.373c32.628-15.217,52.188-45.208,45.309-81.725c0.167-2.739,0.406-5.37,0.61-8.021
	c0.616-7.951,0.881-16.135,0.987-24.42c0.051-3.945,0.065-7.912,0.03-11.868c-7.788-37.835-16.916-78.258-39.978-107.879
	c-3.001-2.854-6.204-5.454-9.632-7.743c-6.855-4.578-14.605-7.91-23.416-9.527c-4.359-1.002-8.816-1.791-13.305-2.323
	c-3.741-0.444-7.504-0.71-11.252-0.775c-3.747-0.064-7.479,0.073-11.175,0.422c-22.907,0.016-43.771,15.664-54.454,36.528
	c-1.921,3.312-3.66,6.714-5.224,10.144c-1.399,2.673-2.731,5.421-3.995,8.239s-2.458,5.704-3.579,8.656
	c-1.495,3.935-2.862,7.986-4.091,12.139c-3.722,12.98-7.634,26.02-11.316,38.528C386.1,241.458,385.108,245.882,384.377,250.391z"/>
<path fill="#422918" d="M519.948,284.29c-24.67,19.846-58.573,32.885-89.771,22.502c-3.976-1.223-7.823-2.776-11.544-4.723
	c-3.712-1.947-7.298-4.29-10.72-7.061c0.261,7.563,1.513,15.543,3.703,23.367c1.095,3.912,2.427,7.785,3.99,11.548
	c10.562,31.587,45.769,51.147,77.064,35.499c7.824-3.912,15.648-10.432,20.863-18.256c9.128-16.952,10.432-35.207,6.829-53.077
	C520.18,288.189,519.948,284.29,519.948,284.29z"/>
<path fill="#1D1D1B" d="M495.767,207.343c0,0-0.318,0.639-0.739,1.763c-0.435,1.123-0.975,2.732-1.475,4.669
	c-0.504,1.937-0.971,4.202-1.325,6.636c-0.176,1.217-0.341,2.475-0.45,3.757c-0.134,1.28-0.2,2.584-0.28,3.887
	c-0.041,1.305-0.093,2.609-0.078,3.896c-0.006,1.286,0.037,2.554,0.103,3.782c0.128,2.456,0.384,4.755,0.706,6.73
	c0.318,1.975,0.707,3.626,1.034,4.785c0.315,1.158,0.571,1.823,0.571,1.823c1.406,3.644,5.499,5.458,9.143,4.052
	c1.714-0.661,3.029-1.93,3.789-3.454c0,0,0.317-0.639,0.737-1.763c0.433-1.123,0.973-2.732,1.472-4.669
	c0.503-1.937,0.97-4.202,1.325-6.636c0.179-1.217,0.339-2.475,0.452-3.756c0.134-1.28,0.202-2.584,0.282-3.887
	c0.041-1.305,0.095-2.609,0.081-3.896c0.009-1.286-0.038-2.554-0.101-3.782c-0.128-2.456-0.383-4.755-0.706-6.73
	c-0.318-1.975-0.708-3.626-1.037-4.785c-0.315-1.158-0.573-1.823-0.573-1.823c-1.412-3.644-5.51-5.454-9.154-4.042
	C497.837,204.561,496.526,205.825,495.767,207.343z"/>
<path fill="#1D1D1B" d="M414.631,207.343c0,0-0.318,0.639-0.739,1.763c-0.435,1.123-0.975,2.732-1.475,4.669
	c-0.504,1.937-0.971,4.202-1.325,6.636c-0.176,1.217-0.341,2.475-0.45,3.757c-0.134,1.28-0.2,2.584-0.28,3.887
	c-0.041,1.305-0.093,2.609-0.078,3.896c-0.006,1.286,0.037,2.554,0.103,3.782c0.128,2.456,0.384,4.755,0.706,6.73
	c0.318,1.975,0.707,3.626,1.034,4.785c0.315,1.158,0.571,1.823,0.571,1.823c1.406,3.644,5.499,5.458,9.143,4.052
	c1.714-0.661,3.029-1.93,3.789-3.454c0,0,0.317-0.639,0.737-1.763c0.433-1.123,0.973-2.732,1.472-4.669
	c0.503-1.937,0.97-4.202,1.325-6.636c0.179-1.217,0.339-2.475,0.452-3.756c0.134-1.28,0.202-2.584,0.282-3.887
	c0.041-1.305,0.095-2.609,0.081-3.896c0.009-1.286-0.038-2.554-0.101-3.782c-0.128-2.456-0.383-4.755-0.706-6.73
	c-0.318-1.975-0.708-3.626-1.037-4.785c-0.315-1.158-0.573-1.823-0.573-1.823c-1.412-3.644-5.51-5.454-9.154-4.042
	C416.701,204.561,415.39,205.825,414.631,207.343z"/>
<path fill="#422918" d="M574.167,335.433c2.005-2.641,3.926-5.333,5.772-8.07c8.174-9.719,16.179-20.023,23.376-30.852
	c2.401-3.61,4.713-7.277,6.928-11.001c1.847-2.488,3.589-5.032,5.225-7.624c1.636-2.592,3.166-5.234,4.588-7.919
	c2.077-8.526,3.765-17.194,5.118-25.934c0.451-2.913,0.863-5.834,1.228-8.757c3.599-12.479,3.879-25.621,2.192-38.793
	c-0.562-4.391-1.343-8.784-2.293-13.158C612,138,564,108,518.771,100.911c-3.875-0.704-7.738-1.448-11.598-2.205
	c-2.704-0.545-5.396-1.061-8.065-1.547C477,94,455,89,434,82c-12-4-25,3-37,2c3,0,6,3,5,4c-5,14-26,12-32.172,27.13
	c-0.953,3.12-1.078,6.37,0.172,9.87c1,2,8,2,10.529,7.012c0.652,3.26,0.815,6.764,0.754,10.269
	c-0.183,10.513-2.384,21.026,0.55,24.938c15.648,19.56,41.727-6.52,65.107-7.627c2.209-0.115,4.419-0.224,6.63-0.327
	c2.211-0.102,4.424-0.198,6.638-0.284c18.451-0.719,36.998-0.82,55.625,0.706c3.725,0.305,7.454,0.676,11.186,1.119
	C537,164,547,171,553.148,180.389c1.451,2.157,2.832,4.365,4.136,6.605c8.408,27.168,18.84,54.552,21.235,83.065
	c-0.062,2.182-0.139,4.366-0.227,6.551s-0.187,4.372-0.29,6.559c-0.621,13.12-1.424,26.243-1.231,39.122
	C576.045,326.558,575.169,330.971,574.167,335.433z"/>
<path fill="#DCB78D" d="M559.774,272.374c-1.142,14.558,10.666,26.367,24.162,28.053c18.556,0,26.991-18.556,23.617-35.425
	c-1.687-6.748-1.687-11.808-6.748-16.869c-3.374-3.374-6.748-5.061-10.122-6.748c-13.495-1.687-25.304,8.435-29.104,19.663
	C560.404,264.577,559.762,268.402,559.774,272.374z"/>
<path fill="#3C3C3B" d="M96.936,394.644c-4.637-13.255-19.142-20.242-32.397-15.605c-1.743,0.61-3.37,1.399-4.883,2.324
	c3.813-9.741,11.684-17.827,22.332-21.552c11.531-4.034,23.708-2.048,33.107,4.305l112.161-39.236
	c3.389-10.826,11.673-19.97,23.204-24.004c10.648-3.725,21.844-2.309,30.897,2.931c-1.761,0.22-3.525,0.617-5.267,1.227
	c-13.255,4.637-20.242,19.142-15.605,32.397c4.637,13.255,19.142,20.242,32.397,15.605c1.279-0.448,2.481-1.013,3.638-1.634
	c-4.059,8.876-11.578,16.154-21.518,19.631c-12.336,4.315-25.406,1.735-35.028-5.705l-109.61,38.344
	c-2.886,11.815-11.497,21.981-23.833,26.296c-9.94,3.477-20.356,2.473-29.063-1.937c1.292-0.236,2.584-0.543,3.863-0.99
	C94.586,422.405,101.573,407.9,96.936,394.644z"/>
<circle fill="#DCB78D" cx="173.198" cy="350.427" r="26.079"/>
<path fill="#B17F49" d="M576.602,560.491c-16.125,1.831-33.077,0.527-48.209,2.507c-1.436,0.005-2.894,0.01-4.372,0.015
	c-2.955-0.005-5.982,0.043-9.075,0.088c-3.107-0.064-6.278-0.115-9.498-0.12c-1.609-0.009-3.232-0.019-4.867-0.028
	c-1.638-0.05-3.288-0.1-4.947-0.15c-3.317-0.09-6.675-0.181-10.059-0.273c-3.382-0.036-6.801-0.319-10.226-0.466
	c-3.427-0.15-6.868-0.301-10.308-0.452c-6.878-0.574-13.768-0.895-20.549-1.404c-3.39-0.294-6.749-0.625-10.078-0.877
	c-3.328-0.267-6.621-0.474-9.854-0.778c-3.234-0.332-6.414-0.659-9.527-0.978c-3.124-0.281-6.18-0.556-9.155-0.824
	c-2.989-0.188-5.868-0.612-8.668-0.92c-15.378-1.333-32.329-7.852-44.065-2.637c-6.52,2.608-5.216,16.952-9.128,26.079
	c15.648,5.216,31.295,10.432,46.496,14.391c2.904,0.759,5.916,1.508,9.036,2.173c3.129,0.63,6.343,1.276,9.628,1.937
	c3.296,0.622,6.663,1.258,10.087,1.905c6.891,1.053,14.045,1.982,21.32,2.882c3.634,0.484,7.338,0.644,11.037,0.963
	c3.703,0.293,7.422,0.568,11.143,0.793c7.464,0.269,14.931,0.479,22.288,0.462c3.682-0.096,7.335-0.192,10.944-0.286
	c1.804-0.057,3.595-0.08,5.375-0.189c1.781-0.127,3.549-0.254,5.303-0.379c3.506-0.238,6.95-0.518,10.316-0.805
	c3.371-0.369,6.667-0.763,9.867-1.177c1.6-0.202,3.178-0.402,4.732-0.599c17.151-3.814,39.318-1.207,51.054-14.246
	c2.608-3.912-1.304-14.344-4.524-22.334C577.231,562.196,576.602,560.491,576.602,560.491z"/>
<path fill="#925F36" d="M484.032,599.793c0.169,1.833,0.331,3.593,0.518,5.301c0.178,1.705,0.443,3.381,0.789,5.022
	c0.346,1.641,0.774,3.247,1.276,4.817c3.08,16.905,16.074,30.621,33.058,29.242c1.534,0.194,3.093,0.296,4.673,0.296
	c3.161,0,6.237-0.407,9.187-1.177c1.475-0.385,2.919-0.861,4.326-1.421c21.138-4.259,32.688-20.863,26.556-41.976
	c-0.004-1.761-0.095-3.496-0.273-5.201s-0.443-3.381-0.789-5.022c-0.346-1.641-0.774-3.247-1.278-4.813
	c-0.191-22.324-15.351-36.762-37.729-29.543c-1.581,0-3.14,0.102-4.672,0.3c-3.321,0.429-6.518,1.31-9.54,2.586
	c-1.511,0.638-2.98,1.371-4.428,2.168c-16.01,4.331-26.116,19.49-22.025,36.295C483.783,597.732,483.903,598.771,484.032,599.793z"
	/>
<circle fill="#F8B133" cx="530.159" cy="556.78" r="17.93"/>
<circle fill="#F8B133" cx="407.586" cy="550.26" r="17.93"/>
</svg>
